<svg width="16" height="16" viewBox="0 0 16 16" fill="none" xmlns="http://www.w3.org/2000/svg">
<path d="M7.64625 11.3538L2.64625 6.35378C2.59979 6.30733 2.56294 6.25218 2.5378 6.19148C2.51266 6.13079 2.49972 6.06573 2.49972 6.00003C2.49972 5.93434 2.51266 5.86928 2.5378 5.80859C2.56294 5.74789 2.59979 5.69274 2.64625 5.64628C2.6927 5.59983 2.74785 5.56298 2.80855 5.53784C2.86924 5.5127 2.9343 5.49976 3 5.49976C3.06569 5.49976 3.13075 5.5127 3.19144 5.53784C3.25214 5.56298 3.30729 5.59983 3.35375 5.64628L8 10.2932L12.6462 5.64628C12.7401 5.55246 12.8673 5.49976 13 5.49976C13.1327 5.49976 13.2599 5.55246 13.3537 5.64628C13.4476 5.7401 13.5003 5.86735 13.5003 6.00003C13.5003 6.13272 13.4476 6.25996 13.3537 6.35378L8.35375 11.3538C8.30731 11.4003 8.25217 11.4372 8.19147 11.4623C8.13077 11.4875 8.0657 11.5004 8 11.5004C7.93429 11.5004 7.86923 11.4875 7.80853 11.4623C7.74783 11.4372 7.69268 11.4003 7.64625 11.3538Z" fill="#232323"/>
</svg>
