<svg width="20" height="20" viewBox="0 0 20 20" fill="none" xmlns="http://www.w3.org/2000/svg">
<g clip-path="url(#clip0_44_151)">
<path d="M15.25 4H12.25V3.25C12.25 2.65326 12.0129 2.08097 11.591 1.65901C11.169 1.23705 10.5967 1 10 1C9.40326 1 8.83097 1.23705 8.40901 1.65901C7.98705 2.08097 7.75 2.65326 7.75 3.25V4H4.75C3.7558 4.00119 2.80267 4.39666 2.09966 5.09966C1.39666 5.80267 1.00119 6.7558 1 7.75L1 15.25C1.00119 16.2442 1.39666 17.1973 2.09966 17.9003C2.80267 18.6033 3.7558 18.9988 4.75 19H15.25C16.2442 18.9988 17.1973 18.6033 17.9003 17.9003C18.6033 17.1973 18.9988 16.2442 19 15.25V7.75C18.9988 6.7558 18.6033 5.80267 17.9003 5.09966C17.1973 4.39666 16.2442 4.00119 15.25 4ZM9.25 3.25C9.25 3.05109 9.32902 2.86032 9.46967 2.71967C9.61032 2.57902 9.80109 2.5 10 2.5C10.1989 2.5 10.3897 2.57902 10.5303 2.71967C10.671 2.86032 10.75 3.05109 10.75 3.25V4.75C10.75 4.94891 10.671 5.13968 10.5303 5.28033C10.3897 5.42098 10.1989 5.5 10 5.5C9.80109 5.5 9.61032 5.42098 9.46967 5.28033C9.32902 5.13968 9.25 4.94891 9.25 4.75V3.25ZM17.5 15.25C17.5 15.8467 17.2629 16.419 16.841 16.841C16.419 17.2629 15.8467 17.5 15.25 17.5H4.75C4.15326 17.5 3.58097 17.2629 3.15901 16.841C2.73705 16.419 2.5 15.8467 2.5 15.25V7.75C2.5 7.15326 2.73705 6.58097 3.15901 6.15901C3.58097 5.73705 4.15326 5.5 4.75 5.5H7.888C8.04074 5.93841 8.32612 6.31842 8.70456 6.58733C9.083 6.85624 9.53575 7.00071 10 7.00071C10.4643 7.00071 10.917 6.85624 11.2954 6.58733C11.6739 6.31842 11.9593 5.93841 12.112 5.5H15.25C15.8467 5.5 16.419 5.73705 16.841 6.15901C17.2629 6.58097 17.5 7.15326 17.5 7.75V15.25ZM8.5 8.5H4.75C4.55109 8.5 4.36032 8.57902 4.21967 8.71967C4.07902 8.86032 4 9.05109 4 9.25V15.25C4 15.4489 4.07902 15.6397 4.21967 15.7803C4.36032 15.921 4.55109 16 4.75 16H8.5C8.69891 16 8.88968 15.921 9.03033 15.7803C9.17098 15.6397 9.25 15.4489 9.25 15.25V9.25C9.25 9.05109 9.17098 8.86032 9.03033 8.71967C8.88968 8.57902 8.69891 8.5 8.5 8.5ZM7.75 14.5H5.5V10H7.75V14.5ZM16 12.25C16 12.4489 15.921 12.6397 15.7803 12.7803C15.6397 12.921 15.4489 13 15.25 13H11.5C11.3011 13 11.1103 12.921 10.9697 12.7803C10.829 12.6397 10.75 12.4489 10.75 12.25C10.75 12.0511 10.829 11.8603 10.9697 11.7197C11.1103 11.579 11.3011 11.5 11.5 11.5H15.25C15.4489 11.5 15.6397 11.579 15.7803 11.7197C15.921 11.8603 16 12.0511 16 12.25ZM16 9.25C16 9.44891 15.921 9.63968 15.7803 9.78033C15.6397 9.92098 15.4489 10 15.25 10H11.5C11.3011 10 11.1103 9.92098 10.9697 9.78033C10.829 9.63968 10.75 9.44891 10.75 9.25C10.75 9.05109 10.829 8.86032 10.9697 8.71967C11.1103 8.57902 11.3011 8.5 11.5 8.5H15.25C15.4489 8.5 15.6397 8.57902 15.7803 8.71967C15.921 8.86032 16 9.05109 16 9.25ZM14.5 15.25C14.5 15.4489 14.421 15.6397 14.2803 15.7803C14.1397 15.921 13.9489 16 13.75 16H11.5C11.3011 16 11.1103 15.921 10.9697 15.7803C10.829 15.6397 10.75 15.4489 10.75 15.25C10.75 15.0511 10.829 14.8603 10.9697 14.7197C11.1103 14.579 11.3011 14.5 11.5 14.5H13.75C13.9489 14.5 14.1397 14.579 14.2803 14.7197C14.421 14.8603 14.5 15.0511 14.5 15.25Z" fill="black"/>
</g>
<defs>
<clipPath id="clip0_44_151">
<rect width="18" height="18" fill="white" transform="translate(1 1)"/>
</clipPath>
</defs>
</svg>
