<svg width="17" height="17" viewBox="0 0 17 17" fill="none" xmlns="http://www.w3.org/2000/svg">
<path d="M3.75 1.66943e-06C3.00832 1.66943e-06 2.2833 0.219935 1.66661 0.631991C1.04993 1.04405 0.569282 1.62972 0.285453 2.31494C0.00162482 3.00016 -0.0726377 3.75416 0.0720569 4.48159C0.216751 5.20902 0.573904 5.8772 1.09835 6.40165C1.6228 6.9261 2.29098 7.28325 3.01841 7.42795C3.74584 7.57264 4.49984 7.49838 5.18506 7.21455C5.87029 6.93072 6.45596 6.45007 6.86801 5.83339C7.28007 5.21671 7.5 4.49168 7.5 3.75C7.5 2.75544 7.10491 1.80161 6.40165 1.09835C5.69839 0.39509 4.74456 1.66943e-06 3.75 1.66943e-06ZM3.75 6C3.30499 6 2.86998 5.86804 2.49997 5.62081C2.12996 5.37358 1.84157 5.02217 1.67127 4.61104C1.50098 4.19991 1.45642 3.74751 1.54323 3.31105C1.63005 2.87459 1.84434 2.47368 2.15901 2.15901C2.47368 1.84434 2.87459 1.63005 3.31105 1.54323C3.74751 1.45642 4.19991 1.50098 4.61104 1.67127C5.02217 1.84157 5.37358 2.12996 5.62081 2.49997C5.86804 2.86998 6 3.30499 6 3.75C6 4.34674 5.76295 4.91904 5.34099 5.34099C4.91904 5.76295 4.34674 6 3.75 6ZM12.75 7.5C13.4917 7.5 14.2167 7.28007 14.8334 6.86801C15.4501 6.45596 15.9307 5.87029 16.2146 5.18506C16.4984 4.49984 16.5726 3.74584 16.4279 3.01841C16.2833 2.29098 15.9261 1.6228 15.4017 1.09835C14.8772 0.573904 14.209 0.216751 13.4816 0.0720569C12.7542 -0.0726377 12.0002 0.00162482 11.3149 0.285453C10.6297 0.569282 10.044 1.04993 9.63199 1.66661C9.21993 2.2833 9 3.00832 9 3.75C9 4.74456 9.39509 5.69839 10.0984 6.40165C10.8016 7.10491 11.7554 7.5 12.75 7.5ZM12.75 1.5C13.195 1.5 13.63 1.63196 14 1.8792C14.37 2.12643 14.6584 2.47783 14.8287 2.88896C14.999 3.3001 15.0436 3.7525 14.9568 4.18895C14.87 4.62541 14.6557 5.02632 14.341 5.34099C14.0263 5.65566 13.6254 5.86995 13.189 5.95677C12.7525 6.04359 12.3001 5.99903 11.889 5.82873C11.4778 5.65843 11.1264 5.37005 10.8792 5.00003C10.632 4.63002 10.5 4.19501 10.5 3.75C10.5 3.15326 10.7371 2.58097 11.159 2.15901C11.581 1.73705 12.1533 1.5 12.75 1.5ZM3.75 9C3.00832 9 2.2833 9.21993 1.66661 9.63199C1.04993 10.044 0.569282 10.6297 0.285453 11.3149C0.00162482 12.0002 -0.0726377 12.7542 0.0720569 13.4816C0.216751 14.209 0.573904 14.8772 1.09835 15.4017C1.6228 15.9261 2.29098 16.2833 3.01841 16.4279C3.74584 16.5726 4.49984 16.4984 5.18506 16.2146C5.87029 15.9307 6.45596 15.4501 6.86801 14.8334C7.28007 14.2167 7.5 13.4917 7.5 12.75C7.5 11.7554 7.10491 10.8016 6.40165 10.0984C5.69839 9.39509 4.74456 9 3.75 9ZM3.75 15C3.30499 15 2.86998 14.868 2.49997 14.6208C2.12996 14.3736 1.84157 14.0222 1.67127 13.611C1.50098 13.1999 1.45642 12.7475 1.54323 12.311C1.63005 11.8746 1.84434 11.4737 2.15901 11.159C2.47368 10.8443 2.87459 10.6301 3.31105 10.5432C3.74751 10.4564 4.19991 10.501 4.61104 10.6713C5.02217 10.8416 5.37358 11.13 5.62081 11.5C5.86804 11.87 6 12.305 6 12.75C6 13.3467 5.76295 13.919 5.34099 14.341C4.91904 14.7629 4.34674 15 3.75 15ZM12.75 9C12.0083 9 11.2833 9.21993 10.6666 9.63199C10.0499 10.044 9.56928 10.6297 9.28545 11.3149C9.00162 12.0002 8.92736 12.7542 9.07206 13.4816C9.21675 14.209 9.5739 14.8772 10.0984 15.4017C10.6228 15.9261 11.291 16.2833 12.0184 16.4279C12.7458 16.5726 13.4998 16.4984 14.1851 16.2146C14.8703 15.9307 15.456 15.4501 15.868 14.8334C16.2801 14.2167 16.5 13.4917 16.5 12.75C16.5 11.7554 16.1049 10.8016 15.4017 10.0984C14.6984 9.39509 13.7446 9 12.75 9ZM12.75 15C12.305 15 11.87 14.868 11.5 14.6208C11.13 14.3736 10.8416 14.0222 10.6713 13.611C10.501 13.1999 10.4564 12.7475 10.5432 12.311C10.6301 11.8746 10.8443 11.4737 11.159 11.159C11.4737 10.8443 11.8746 10.6301 12.311 10.5432C12.7475 10.4564 13.1999 10.501 13.611 10.6713C14.0222 10.8416 14.3736 11.13 14.6208 11.5C14.868 11.87 15 12.305 15 12.75C15 13.3467 14.7629 13.919 14.341 14.341C13.919 14.7629 13.3467 15 12.75 15Z" fill="white"/>
</svg>
