<svg width="20" height="20" viewBox="0 0 20 20" fill="none" xmlns="http://www.w3.org/2000/svg">
<path d="M14.1635 0C13.9425 0 13.7306 0.0877974 13.5743 0.244078C13.4181 0.400358 13.3303 0.61232 13.3303 0.833333C13.3303 3.29083 11.1783 4.16667 9.1646 4.16667H3.33258C2.44873 4.16667 1.60107 4.51786 0.97609 5.14298C0.35111 5.7681 0 6.61594 0 7.5L0 9.16667C0.00181973 9.66561 0.116192 10.1577 0.334593 10.6063C0.552995 11.0549 0.869794 11.4484 1.26138 11.7575L4.23738 18.4008C4.44903 18.8767 4.79406 19.2811 5.23071 19.5649C5.66736 19.8487 6.1769 19.9998 6.69765 20C7.11199 19.9997 7.51967 19.8958 7.88361 19.6977C8.24754 19.4996 8.55617 19.2137 8.78139 18.8658C9.00661 18.518 9.14129 18.1193 9.17315 17.7061C9.20501 17.2929 9.13304 16.8783 8.96381 16.5L7.13089 12.5H9.1646C11.1783 12.5 13.3303 13.3758 13.3303 15.8333C13.3303 16.0543 13.4181 16.2663 13.5743 16.4226C13.7306 16.5789 13.9425 16.6667 14.1635 16.6667C14.3844 16.6667 14.5963 16.5789 14.7526 16.4226C14.9088 16.2663 14.9966 16.0543 14.9966 15.8333V0.833333C14.9966 0.61232 14.9088 0.400358 14.7526 0.244078C14.5963 0.0877974 14.3844 0 14.1635 0ZM7.44582 17.1825C7.501 17.3072 7.52421 17.4436 7.51334 17.5795C7.50247 17.7154 7.45786 17.8464 7.38356 17.9607C7.30926 18.075 7.20761 18.169 7.08784 18.234C6.96807 18.2991 6.83395 18.3332 6.69765 18.3333C6.49886 18.3332 6.30439 18.2753 6.13785 18.1667C5.97132 18.0582 5.83989 17.9035 5.75953 17.7217L3.42006 12.5H5.29797L7.44582 17.1825ZM13.3303 12.1667C12.14 11.2493 10.6662 10.7776 9.1646 10.8333H3.33258C2.89065 10.8333 2.46683 10.6577 2.15434 10.3452C1.84185 10.0326 1.66629 9.60869 1.66629 9.16667V7.5C1.66629 7.05797 1.84185 6.63405 2.15434 6.32149C2.46683 6.00893 2.89065 5.83333 3.33258 5.83333H9.1646C10.6657 5.89025 12.1394 5.42002 13.3303 4.50417V12.1667ZM19.9122 12.8767C19.8633 12.9746 19.7956 13.062 19.713 13.1338C19.6303 13.2056 19.5343 13.2604 19.4305 13.2951C19.3266 13.3298 19.217 13.3436 19.1078 13.3359C18.9986 13.3281 18.892 13.299 18.7941 13.25L17.1278 12.4167C16.93 12.3179 16.7796 12.1445 16.7096 11.9348C16.6396 11.7251 16.6558 11.4961 16.7546 11.2983C16.8533 11.1005 17.0266 10.9501 17.2363 10.8801C17.446 10.81 17.6749 10.8262 17.8726 10.925L19.5389 11.7583C19.7357 11.8571 19.8854 12.0297 19.9553 12.2384C20.0252 12.4472 20.0097 12.6751 19.9122 12.8725V12.8767ZM16.7546 5.37667C16.7056 5.27873 16.6764 5.17211 16.6687 5.06289C16.661 4.95367 16.6748 4.84399 16.7095 4.74013C16.7441 4.63628 16.7989 4.54027 16.8707 4.4576C16.9425 4.37493 17.0298 4.30722 17.1278 4.25833L18.7941 3.425C18.9919 3.32621 19.2208 3.31004 19.4304 3.38005C19.6401 3.45007 19.8134 3.60053 19.9122 3.79833C20.0109 3.99614 20.0271 4.22509 19.9571 4.43482C19.8871 4.64455 19.7367 4.81787 19.5389 4.91667L17.8726 5.75C17.7747 5.79896 17.6681 5.82815 17.5589 5.83588C17.4497 5.84362 17.3401 5.82976 17.2362 5.79508C17.1324 5.76041 17.0364 5.70561 16.9538 5.63382C16.8711 5.56203 16.8034 5.47464 16.7546 5.37667ZM16.6629 8.33333C16.6629 8.11232 16.7507 7.90036 16.9069 7.74408C17.0632 7.5878 17.2751 7.5 17.4961 7.5H19.1623C19.3833 7.5 19.5952 7.5878 19.7515 7.74408C19.9077 7.90036 19.9955 8.11232 19.9955 8.33333C19.9955 8.55435 19.9077 8.76631 19.7515 8.92259C19.5952 9.07887 19.3833 9.16667 19.1623 9.16667H17.4961C17.2751 9.16667 17.0632 9.07887 16.9069 8.92259C16.7507 8.76631 16.6629 8.55435 16.6629 8.33333Z" fill="#7E7E7E"/>
</svg>
